<svg xmlns="http://www.w3.org/2000/svg" viewBox="0 0 19.00 36.00" fill="none" stroke="currentColor" stroke-linecap="round" stroke-linejoin="round"><path d="M5 13L10 13" fill="none" stroke-width="1.26" stroke-linecap="round" stroke-linejoin="round"/><path d="M5 15L11 16" fill="none" stroke-width="1.26" stroke-linecap="round" stroke-linejoin="round"/><path d="M6 13L7 15L7 15" fill="none" stroke-width="1.26" stroke-linecap="round" stroke-linejoin="round"/><path d="M9 13L8 15" fill="none" stroke-width="1.26" stroke-linecap="round" stroke-linejoin="round"/><path d="M6 15L6 21L5 22L11 22L9 20L10 16" fill="none" stroke-width="1.26" stroke-linecap="round" stroke-linejoin="round"/><path d="M8 22L7 25" fill="none" stroke-width="1.26" stroke-linecap="round" stroke-linejoin="round"/><path d="M9 22L10 25" fill="none" stroke-width="1.26" stroke-linecap="round" stroke-linejoin="round"/><path d="M5 24L11 24" fill="none" stroke-width="1.26" stroke-linecap="round" stroke-linejoin="round"/><path d="M10 29L9 25L8 26L8 30" fill="none" stroke-width="1.26" stroke-linecap="round" stroke-linejoin="round"/><path d="M9 26L6 29L4 32" fill="none" stroke-width="1.26" stroke-linecap="round" stroke-linejoin="round"/><path d="M9 6L14 9L13 13" fill="none" stroke-width="1.26" stroke-linecap="round" stroke-linejoin="round"/><path d="M11 7L10 11L13 13" fill="none" stroke-width="1.26" stroke-linecap="round" stroke-linejoin="round"/><path d="M13 14L15 20" fill="none" stroke-width="1.26" stroke-linecap="round" stroke-linejoin="round"/><path d="M9 4L5 11" fill="none" stroke-width="1.26" stroke-linecap="round" stroke-linejoin="round"/></svg>